# Blender 4.4.3
# www.blender.org
mtllib wheel_motor_link1.mtl
o wheel_motor_link1
v 0.070000 -0.000000 0.027700
v 0.070000 0.000000 -0.027700
v 0.069998 0.000524 -0.027700
v 0.069998 0.000524 0.027700
v 0.068967 0.011983 -0.027700
v 0.068967 0.011983 0.027700
v 0.066072 0.023120 -0.027700
v 0.066072 0.023119 0.027700
v 0.061392 0.033631 -0.027700
v 0.061392 0.033631 0.027700
v 0.055053 0.043234 -0.027700
v 0.055053 0.043234 0.027700
v 0.047227 0.051668 -0.027700
v 0.047227 0.051668 0.027700
v 0.038125 0.058707 -0.027700
v 0.038125 0.058707 0.027700
v 0.027992 0.064159 -0.027700
v 0.027992 0.064159 0.027700
v 0.017104 0.067878 -0.027700
v 0.017104 0.067878 0.027700
v 0.005753 0.069763 -0.027700
v 0.005753 0.069763 0.027700
v -0.000000 0.070000 0.027700
v 0.000000 0.070000 -0.027700
v -0.005753 0.069763 0.027700
v -0.005753 0.069763 -0.027700
v -0.017104 0.067878 -0.027700
v -0.017104 0.067878 0.027700
v -0.027992 0.064159 -0.027700
v -0.027992 0.064159 0.027700
v -0.038125 0.058707 -0.027700
v -0.038125 0.058707 0.027700
v -0.047227 0.051668 -0.027700
v -0.047227 0.051668 0.027700
v -0.055053 0.043234 -0.027700
v -0.055053 0.043234 0.027700
v -0.061392 0.033631 -0.027700
v -0.061392 0.033631 0.027700
v -0.066072 0.023120 -0.027700
v -0.066072 0.023119 0.027700
v -0.068967 0.011983 -0.027700
v -0.068967 0.011983 0.027700
v -0.069998 0.000524 -0.027700
v -0.069998 0.000524 0.027700
v -0.070000 0.000000 -0.027700
v -0.070000 -0.000000 0.027700
v -0.005753 -0.069763 0.027700
v -0.000000 -0.070000 0.027700
v -0.069998 -0.000524 0.027700
v -0.047227 -0.051668 0.027700
v -0.038125 -0.058707 0.027700
v -0.068967 -0.011983 0.027700
v -0.066072 -0.023120 0.027700
v -0.061392 -0.033631 0.027700
v -0.027992 -0.064159 0.027700
v -0.017104 -0.067878 0.027700
v 0.005753 -0.069763 0.027700
v 0.017104 -0.067878 0.027700
v 0.027992 -0.064159 0.027700
v 0.055053 -0.043234 0.027700
v 0.061392 -0.033631 0.027700
v 0.066072 -0.023120 0.027700
v -0.055053 -0.043234 0.027700
v 0.038125 -0.058707 0.027700
v 0.047227 -0.051668 0.027700
v 0.068967 -0.011983 0.027700
v 0.069998 -0.000524 0.027700
v -0.069998 -0.000524 -0.027700
v -0.068967 -0.011983 -0.027700
v -0.066072 -0.023119 -0.027700
v -0.061392 -0.033631 -0.027700
v -0.055053 -0.043234 -0.027700
v -0.047227 -0.051668 -0.027700
v -0.038125 -0.058707 -0.027700
v -0.027992 -0.064159 -0.027700
v -0.017104 -0.067878 -0.027700
v -0.005753 -0.069763 -0.027700
v 0.000000 -0.070000 -0.027700
v 0.005753 -0.069763 -0.027700
v 0.017104 -0.067878 -0.027700
v 0.027992 -0.064159 -0.027700
v 0.038125 -0.058707 -0.027700
v 0.047227 -0.051668 -0.027700
v 0.055053 -0.043234 -0.027700
v 0.061392 -0.033631 -0.027700
v 0.066072 -0.023119 -0.027700
v 0.068967 -0.011983 -0.027700
v 0.069998 -0.000524 -0.027700
vn 1.0000 0.0038 -0.0000
vn 1.0000 0.0037 -0.0000
vn 0.9960 0.0896 -0.0000
vn 0.9678 0.2516 -0.0000
vn 0.9135 0.4067 -0.0000
vn 0.8346 0.5509 -0.0000
vn 0.7331 0.6802 -0.0000
vn 0.6117 0.7911 -0.0000
vn 0.4739 0.8806 -0.0000
vn 0.3232 0.9463 -0.0000
vn 0.1638 0.9865 -0.0000
vn 0.0411 0.9992 -0.0000
vn -0.0411 0.9992 -0.0000
vn -0.1638 0.9865 -0.0000
vn -0.3232 0.9463 -0.0000
vn -0.4739 0.8806 -0.0000
vn -0.6117 0.7911 -0.0000
vn -0.7331 0.6802 -0.0000
vn -0.8346 0.5509 -0.0000
vn -0.9135 0.4067 -0.0000
vn -0.9678 0.2516 -0.0000
vn -0.9960 0.0896 -0.0000
vn -1.0000 0.0037 -0.0000
vn -0.0000 -0.0000 1.0000
vn -1.0000 -0.0037 -0.0000
vn -0.9960 -0.0896 -0.0000
vn -0.9678 -0.2516 -0.0000
vn -0.9135 -0.4067 -0.0000
vn -0.8346 -0.5509 -0.0000
vn -0.7331 -0.6802 -0.0000
vn -0.6117 -0.7911 -0.0000
vn -0.4739 -0.8806 -0.0000
vn -0.3232 -0.9463 -0.0000
vn -0.1638 -0.9865 -0.0000
vn -0.0411 -0.9992 -0.0000
vn 0.0411 -0.9992 -0.0000
vn 0.1638 -0.9865 -0.0000
vn 0.3232 -0.9463 -0.0000
vn 0.4739 -0.8806 -0.0000
vn 0.6117 -0.7911 -0.0000
vn 0.7331 -0.6802 -0.0000
vn 0.8346 -0.5509 -0.0000
vn 0.9135 -0.4067 -0.0000
vn 0.9678 -0.2516 -0.0000
vn 0.9960 -0.0896 -0.0000
vn 1.0000 -0.0038 -0.0000
vn 1.0000 -0.0037 -0.0000
vn -0.0000 -0.0000 -1.0000
vt 0.710422 0.726195
vt 0.511893 0.726195
vt 0.511893 0.724352
vt 0.710422 0.724352
vt 0.511893 0.683336
vt 0.710422 0.683336
vt 0.511893 0.642182
vt 0.710421 0.642182
vt 0.511893 0.602002
vt 0.710422 0.602002
vt 0.511893 0.563882
vt 0.710422 0.563882
vt 0.511893 0.528852
vt 0.710421 0.528852
vt 0.511893 0.497858
vt 0.710422 0.497858
vt 0.595587 0.501683
vt 0.794115 0.501683
vt 0.794115 0.534836
vt 0.595587 0.534836
vt 0.794115 0.571557
vt 0.595587 0.571557
vt 0.794115 0.610854
vt 0.595587 0.610854
vt 0.595587 0.631139
vt 0.794115 0.631139
vt 0.595587 0.651666
vt 0.794115 0.651666
vt 0.794115 0.692889
vt 0.595587 0.692889
vt 0.794115 0.733411
vt 0.595587 0.733411
vt 0.794115 0.772135
vt 0.595587 0.772135
vt 0.794115 0.808017
vt 0.595587 0.808017
vt 0.794115 0.840086
vt 0.595587 0.840086
vt 0.562691 0.551413
vt 0.761220 0.551413
vt 0.761220 0.580848
vt 0.562691 0.580848
vt 0.761220 0.614615
vt 0.562691 0.614615
vt 0.761220 0.651802
vt 0.562691 0.651802
vt 0.761220 0.691405
vt 0.562691 0.691405
vt 0.761220 0.693245
vt 0.562691 0.693245
vt 0.877613 0.443202
vt 0.888130 0.460955
vt 0.786103 0.800720
vt 0.900938 0.796895
vt 0.663199 0.355102
vt 0.664855 0.354220
vt 0.571689 0.712621
vt 0.561172 0.694868
vt 0.899282 0.797778
vt 0.815070 0.526176
vt 0.476960 0.423266
vt 0.816725 0.525293
vt 0.615006 0.541169
vt 0.577338 0.524398
vt 0.787752 0.799825
vt 0.485353 0.467017
vt 0.585731 0.128147
vt 0.594753 0.146704
vt 0.608080 0.185724
vt 0.777155 0.542382
vt 0.737097 0.552157
vt 0.695980 0.555238
vt 0.787752 0.359823
vt 0.822164 0.382538
vt 0.852390 0.410584
vt 0.608080 0.308309
vt 0.594753 0.347329
vt 0.575214 0.383638
vt 0.818374 0.524398
vt 0.908235 0.441019
vt 0.883012 0.473637
vt 0.852786 0.501683
vt 0.542926 0.501683
vt 0.929905 0.522351
vt 0.657761 0.497857
vt 0.627535 0.469812
vt 0.602312 0.437194
vt 0.552150 0.676311
vt 0.538823 0.637291
vt 0.532068 0.596615
vt 0.552150 0.475686
vt 0.571689 0.439377
vt 0.596912 0.406759
vt 0.550020 0.358045
vt 0.587935 0.341839
vt 0.627992 0.332064
vt 0.669110 0.328982
vt 0.710177 0.332679
vt 0.750083 0.343052
vt 0.577458 0.461151
vt 0.584212 0.501827
vt 0.454731 0.742444
vt 0.584212 0.543060
vt 0.577458 0.583736
vt 0.654913 0.551542
vt 0.532068 0.555382
vt 0.538823 0.514706
vt 0.627138 0.378713
vt 0.661550 0.355998
vt 0.761220 0.695088
vt 0.562691 0.695088
vt 0.761220 0.736105
vt 0.562691 0.736105
vt 0.761220 0.777259
vt 0.562691 0.777259
vt 0.761220 0.817438
vt 0.562691 0.817438
vt 0.761220 0.855558
vt 0.562691 0.855558
vt 0.761220 0.890588
vt 0.562691 0.890588
vt 0.761220 0.921582
vt 0.562691 0.921582
vt 0.844914 0.922719
vt 0.646385 0.922719
vt 0.646385 0.893412
vt 0.844914 0.893412
vt 0.646385 0.859749
vt 0.844914 0.859749
vt 0.646385 0.822641
vt 0.844914 0.822641
vt 0.844914 0.803105
vt 0.646385 0.803105
vt 0.844914 0.783089
vt 0.646385 0.783089
vt 0.646385 0.742162
vt 0.844914 0.742162
vt 0.646385 0.700967
vt 0.844914 0.700967
vt 0.646385 0.660615
vt 0.844914 0.660615
vt 0.646385 0.622198
vt 0.844914 0.622198
vt 0.646385 0.586753
vt 0.844914 0.586753
vt 0.646385 0.555239
vt 0.844914 0.555239
vt 0.710421 0.838592
vt 0.511893 0.838592
vt 0.511893 0.804825
vt 0.710422 0.804825
vt 0.511893 0.767638
vt 0.710421 0.767638
vt 0.511893 0.728035
vt 0.710422 0.728035
vt 0.649056 0.353203
vt 0.650327 0.351823
vt 0.663592 0.706328
vt 0.679282 0.719729
vt 0.535492 0.355648
vt 0.903262 0.696889
vt 0.901981 0.698260
vt 0.904534 0.357029
vt 0.889998 0.342384
vt 0.536774 0.354278
vt 0.874308 0.328983
vt 0.649056 0.691684
vt 0.623833 0.659065
vt 0.604294 0.622756
vt 0.754914 0.284459
vt 0.651609 0.350452
vt 0.716999 0.300664
vt 0.682251 0.322862
vt 0.794971 0.274683
vt 0.680136 0.278508
vt 0.721254 0.275427
vt 0.762321 0.279123
vt 0.929757 0.389647
vt 0.949296 0.425956
vt 0.962623 0.464976
vt 0.962623 0.587561
vt 0.949296 0.626581
vt 0.798676 0.764253
vt 0.758619 0.774029
vt 0.717501 0.777110
vt 0.676434 0.773414
vt 0.791269 0.769589
vt 0.751362 0.759215
vt 0.713694 0.742444
vt 0.802227 0.289497
vt 0.839896 0.306268
vt 0.969377 0.505652
vt 0.969377 0.546885
vt 0.929757 0.662891
vt 0.904534 0.695509
vt 0.871339 0.725850
vt 0.836591 0.748048
vt 0.590967 0.583736
vt 0.584212 0.543060
vt 0.584212 0.501827
vt 0.590967 0.461151
vt 0.604294 0.422131
vt 0.623833 0.385821
s 0
usemtl Material.031
f 1/1/1 2/2/1 3/3/1
f 1/1/2 3/3/2 4/4/2
f 4/4/3 3/3/3 5/5/3
f 4/4/3 5/5/3 6/6/3
f 6/6/4 5/5/4 7/7/4
f 6/6/4 7/7/4 8/8/4
f 8/8/5 7/7/5 9/9/5
f 8/8/5 9/9/5 10/10/5
f 10/10/6 9/9/6 11/11/6
f 10/10/6 11/11/6 12/12/6
f 12/12/7 11/11/7 13/13/7
f 12/12/7 13/13/7 14/14/7
f 14/14/8 13/13/8 15/15/8
f 14/14/8 15/15/8 16/16/8
f 16/17/9 15/18/9 17/19/9
f 16/17/9 17/19/9 18/20/9
f 18/20/10 17/19/10 19/21/10
f 18/20/10 19/21/10 20/22/10
f 20/22/11 19/21/11 21/23/11
f 20/22/11 21/23/11 22/24/11
f 22/24/12 21/23/12 23/25/12
f 23/25/12 21/23/12 24/26/12
f 23/25/13 24/26/13 25/27/13
f 24/26/13 26/28/13 25/27/13
f 25/27/14 26/28/14 27/29/14
f 25/27/14 27/29/14 28/30/14
f 28/30/15 27/29/15 29/31/15
f 28/30/15 29/31/15 30/32/15
f 30/32/16 29/31/16 31/33/16
f 30/32/16 31/33/16 32/34/16
f 32/34/17 31/33/17 33/35/17
f 32/34/17 33/35/17 34/36/17
f 34/36/18 33/35/18 35/37/18
f 34/36/18 35/37/18 36/38/18
f 36/39/19 35/40/19 37/41/19
f 36/39/19 37/41/19 38/42/19
f 38/42/20 37/41/20 39/43/20
f 38/42/20 39/43/20 40/44/20
f 40/44/21 39/43/21 41/45/21
f 40/44/21 41/45/21 42/46/21
f 42/46/22 41/45/22 43/47/22
f 42/46/22 43/47/22 44/48/22
f 44/48/23 43/47/23 45/49/23
f 44/48/23 45/49/23 46/50/23
f 22/51/24 23/52/24 46/53/24
f 46/54/24 1/55/24 4/56/24
f 47/57/24 48/58/24 49/59/24
f 49/60/24 48/61/24 46/62/24
f 50/63/24 51/64/24 49/60/24
f 46/53/24 23/52/24 44/65/24
f 44/66/24 23/67/24 25/68/24
f 44/66/24 25/68/24 28/69/24
f 52/70/24 53/71/24 54/72/24
f 16/73/24 18/74/24 46/53/24
f 46/53/24 18/74/24 20/75/24
f 46/53/24 20/75/24 22/51/24
f 44/66/24 34/76/24 36/77/24
f 36/77/24 38/78/24 44/66/24
f 44/79/24 38/80/24 40/81/24
f 44/79/24 40/81/24 42/82/24
f 51/64/24 55/83/24 49/60/24
f 49/84/24 55/85/24 56/86/24
f 49/84/24 56/86/24 47/87/24
f 48/58/24 57/88/24 46/54/24
f 46/54/24 57/88/24 58/89/24
f 46/54/24 58/89/24 59/90/24
f 60/91/24 61/92/24 46/54/24
f 46/54/24 61/92/24 62/93/24
f 4/94/24 6/95/24 46/53/24
f 46/53/24 6/95/24 8/96/24
f 46/53/24 8/96/24 10/97/24
f 10/97/24 12/98/24 46/53/24
f 46/53/24 12/98/24 14/99/24
f 46/53/24 14/99/24 16/73/24
f 28/100/24 30/101/24 44/102/24
f 44/102/24 30/101/24 32/103/24
f 44/102/24 32/103/24 34/104/24
f 52/70/24 54/72/24 49/60/24
f 49/60/24 54/72/24 63/105/24
f 49/60/24 63/105/24 50/63/24
f 59/90/24 64/106/24 46/54/24
f 46/54/24 64/106/24 65/107/24
f 46/54/24 65/107/24 60/91/24
f 62/93/24 66/108/24 46/54/24
f 46/54/24 66/108/24 67/109/24
f 46/54/24 67/109/24 1/55/24
f 46/50/25 45/49/25 68/110/25
f 46/50/25 68/110/25 49/111/25
f 49/111/26 68/110/26 69/112/26
f 49/111/26 69/112/26 52/113/26
f 52/113/27 69/112/27 70/114/27
f 52/113/27 70/114/27 53/115/27
f 53/115/28 70/114/28 71/116/28
f 53/115/28 71/116/28 54/117/28
f 54/117/29 71/116/29 72/118/29
f 54/117/29 72/118/29 63/119/29
f 63/119/30 72/118/30 73/120/30
f 63/119/30 73/120/30 50/121/30
f 50/121/31 73/120/31 74/122/31
f 50/121/31 74/122/31 51/123/31
f 51/124/32 74/125/32 75/126/32
f 51/124/32 75/126/32 55/127/32
f 55/127/33 75/126/33 76/128/33
f 55/127/33 76/128/33 56/129/33
f 56/129/34 76/128/34 77/130/34
f 56/129/34 77/130/34 47/131/34
f 47/131/35 77/130/35 48/132/35
f 48/132/35 77/130/35 78/133/35
f 48/132/36 78/133/36 57/134/36
f 78/133/36 79/135/36 57/134/36
f 57/134/37 79/135/37 80/136/37
f 57/134/37 80/136/37 58/137/37
f 58/137/38 80/136/38 81/138/38
f 58/137/38 81/138/38 59/139/38
f 59/139/39 81/138/39 82/140/39
f 59/139/39 82/140/39 64/141/39
f 64/141/40 82/140/40 83/142/40
f 64/141/40 83/142/40 65/143/40
f 65/143/41 83/142/41 84/144/41
f 65/143/41 84/144/41 60/145/41
f 60/145/42 84/144/42 85/146/42
f 60/145/42 85/146/42 61/147/42
f 61/148/43 85/149/43 86/150/43
f 61/148/43 86/150/43 62/151/43
f 62/151/44 86/150/44 87/152/44
f 62/151/44 87/152/44 66/153/44
f 66/153/45 87/152/45 88/154/45
f 66/153/45 88/154/45 67/155/45
f 67/155/46 88/154/46 2/2/46
f 67/155/47 2/2/47 1/1/47
f 68/156/48 45/157/48 78/158/48
f 78/158/48 45/157/48 79/159/48
f 45/160/48 2/161/48 88/162/48
f 21/163/48 45/160/48 24/164/48
f 24/164/48 45/160/48 43/165/48
f 24/164/48 43/165/48 26/166/48
f 78/158/48 77/167/48 68/156/48
f 68/156/48 77/167/48 76/168/48
f 68/156/48 76/168/48 75/169/48
f 37/170/48 43/171/48 39/172/48
f 39/172/48 43/171/48 41/173/48
f 37/170/48 35/174/48 43/171/48
f 43/165/48 35/175/48 33/176/48
f 43/165/48 33/176/48 31/177/48
f 21/163/48 19/178/48 45/160/48
f 45/160/48 19/178/48 17/179/48
f 45/160/48 17/179/48 15/180/48
f 45/160/48 9/181/48 7/182/48
f 85/183/48 84/184/48 45/160/48
f 45/160/48 84/184/48 83/185/48
f 45/160/48 83/185/48 82/186/48
f 82/187/48 81/188/48 45/157/48
f 45/157/48 81/188/48 80/189/48
f 45/157/48 80/189/48 79/159/48
f 31/177/48 29/190/48 43/165/48
f 43/165/48 29/190/48 27/191/48
f 43/165/48 27/191/48 26/166/48
f 15/180/48 13/192/48 45/160/48
f 45/160/48 13/192/48 11/193/48
f 45/160/48 11/193/48 9/181/48
f 7/182/48 5/194/48 45/160/48
f 45/160/48 5/194/48 3/195/48
f 45/160/48 3/195/48 2/161/48
f 88/162/48 87/196/48 45/160/48
f 45/160/48 87/196/48 86/197/48
f 45/160/48 86/197/48 85/183/48
f 75/169/48 74/198/48 68/156/48
f 68/156/48 74/198/48 73/199/48
f 68/156/48 73/199/48 72/200/48
f 72/200/48 71/201/48 68/156/48
f 68/156/48 71/201/48 70/202/48
f 68/156/48 70/202/48 69/203/48
