# Blender 4.4.3
# www.blender.org
mtllib wheel_motor_link2.mtl
o wheel_motor_link2
v 0.070000 -0.000000 0.027700
v 0.070000 0.000000 -0.027700
v 0.069998 0.000524 -0.027700
v 0.069998 0.000524 0.027700
v 0.068967 0.011983 -0.027700
v 0.068967 0.011983 0.027700
v 0.066072 0.023120 -0.027700
v 0.066072 0.023119 0.027700
v 0.061392 0.033631 -0.027700
v 0.061392 0.033631 0.027700
v 0.055053 0.043234 -0.027700
v 0.055053 0.043234 0.027700
v 0.047227 0.051668 -0.027700
v 0.047227 0.051668 0.027700
v 0.038125 0.058707 -0.027700
v 0.038125 0.058707 0.027700
v 0.027992 0.064159 -0.027700
v 0.027992 0.064159 0.027700
v 0.017104 0.067878 -0.027700
v 0.017104 0.067878 0.027700
v 0.005753 0.069763 -0.027700
v 0.005753 0.069763 0.027700
v -0.000000 0.070000 0.027700
v 0.000000 0.070000 -0.027700
v -0.005753 0.069763 0.027700
v -0.005753 0.069763 -0.027700
v -0.017104 0.067878 -0.027700
v -0.017104 0.067878 0.027700
v -0.027992 0.064159 -0.027700
v -0.027992 0.064159 0.027700
v -0.038125 0.058707 -0.027700
v -0.038125 0.058707 0.027700
v -0.047227 0.051668 -0.027700
v -0.047227 0.051668 0.027700
v -0.055053 0.043234 -0.027700
v -0.055053 0.043234 0.027700
v -0.061392 0.033631 -0.027700
v -0.061392 0.033631 0.027700
v -0.066072 0.023120 -0.027700
v -0.066072 0.023119 0.027700
v -0.068967 0.011983 -0.027700
v -0.068967 0.011983 0.027700
v -0.069998 0.000524 -0.027700
v -0.069998 0.000524 0.027700
v -0.070000 0.000000 -0.027700
v -0.070000 -0.000000 0.027700
v -0.069998 -0.000524 0.027700
v 0.005753 -0.069763 0.027700
v 0.069998 -0.000524 0.027700
v -0.000000 -0.070000 0.027700
v -0.005753 -0.069763 0.027700
v 0.017104 -0.067878 0.027700
v 0.027992 -0.064159 0.027700
v 0.038125 -0.058707 0.027700
v -0.061392 -0.033631 0.027700
v -0.055053 -0.043234 0.027700
v -0.047227 -0.051668 0.027700
v -0.038125 -0.058707 0.027700
v -0.027992 -0.064159 0.027700
v -0.017104 -0.067878 0.027700
v 0.068967 -0.011983 0.027700
v 0.066072 -0.023120 0.027700
v 0.061392 -0.033631 0.027700
v -0.068967 -0.011983 0.027700
v -0.066072 -0.023120 0.027700
v 0.047227 -0.051668 0.027700
v 0.055053 -0.043234 0.027700
v -0.069998 -0.000524 -0.027700
v -0.068967 -0.011983 -0.027700
v -0.066072 -0.023119 -0.027700
v -0.061392 -0.033631 -0.027700
v -0.055053 -0.043234 -0.027700
v -0.047227 -0.051668 -0.027700
v -0.038125 -0.058707 -0.027700
v -0.027992 -0.064159 -0.027700
v -0.017104 -0.067878 -0.027700
v -0.005753 -0.069763 -0.027700
v 0.000000 -0.070000 -0.027700
v 0.005753 -0.069763 -0.027700
v 0.017104 -0.067878 -0.027700
v 0.027992 -0.064159 -0.027700
v 0.038125 -0.058707 -0.027700
v 0.047227 -0.051668 -0.027700
v 0.055053 -0.043234 -0.027700
v 0.061392 -0.033631 -0.027700
v 0.066072 -0.023119 -0.027700
v 0.068967 -0.011983 -0.027700
v 0.069998 -0.000524 -0.027700
vn 1.0000 0.0037 -0.0000
vn 1.0000 0.0038 -0.0000
vn 0.9960 0.0896 -0.0000
vn 0.9678 0.2516 -0.0000
vn 0.9135 0.4067 -0.0000
vn 0.8346 0.5509 -0.0000
vn 0.7331 0.6802 -0.0000
vn 0.6117 0.7911 -0.0000
vn 0.4739 0.8806 -0.0000
vn 0.3232 0.9463 -0.0000
vn 0.1638 0.9865 -0.0000
vn 0.0411 0.9992 -0.0000
vn -0.0411 0.9992 -0.0000
vn -0.1638 0.9865 -0.0000
vn -0.3232 0.9463 -0.0000
vn -0.4739 0.8806 -0.0000
vn -0.6117 0.7911 -0.0000
vn -0.7331 0.6802 -0.0000
vn -0.8346 0.5509 -0.0000
vn -0.9135 0.4067 -0.0000
vn -0.9678 0.2516 -0.0000
vn -0.9960 0.0896 -0.0000
vn -1.0000 0.0037 -0.0000
vn -0.0000 -0.0000 1.0000
vn -1.0000 -0.0037 -0.0000
vn -0.9960 -0.0896 -0.0000
vn -0.9678 -0.2516 -0.0000
vn -0.9135 -0.4067 -0.0000
vn -0.8346 -0.5509 -0.0000
vn -0.7331 -0.6802 -0.0000
vn -0.6117 -0.7911 -0.0000
vn -0.4739 -0.8806 -0.0000
vn -0.3232 -0.9463 -0.0000
vn -0.1638 -0.9865 -0.0000
vn -0.0411 -0.9992 -0.0000
vn 0.0411 -0.9992 -0.0000
vn 0.1638 -0.9865 -0.0000
vn 0.3232 -0.9463 -0.0000
vn 0.4739 -0.8806 -0.0000
vn 0.6117 -0.7911 -0.0000
vn 0.7331 -0.6802 -0.0000
vn 0.8346 -0.5509 -0.0000
vn 0.9135 -0.4067 -0.0000
vn 0.9678 -0.2516 -0.0000
vn 0.9960 -0.0896 -0.0000
vn 1.0000 -0.0037 -0.0000
vn 1.0000 -0.0038 -0.0000
vn -0.0000 -0.0000 -1.0000
vt 0.744872 0.648509
vt 0.546343 0.648509
vt 0.546343 0.646669
vt 0.829084 0.667636
vt 0.630555 0.665796
vt 0.829084 0.665796
vt 0.744872 0.646669
vt 0.546343 0.607066
vt 0.630555 0.626193
vt 0.829084 0.626193
vt 0.744872 0.607066
vt 0.546343 0.569879
vt 0.630555 0.589006
vt 0.829084 0.589006
vt 0.744872 0.569879
vt 0.546343 0.536112
vt 0.630555 0.555239
vt 0.829084 0.555239
vt 0.841086 0.884465
vt 0.642557 0.884465
vt 0.642557 0.852951
vt 0.841086 0.852951
vt 0.642557 0.817506
vt 0.841086 0.817506
vt 0.642557 0.779089
vt 0.841086 0.779089
vt 0.642557 0.738737
vt 0.841086 0.738737
vt 0.642557 0.697542
vt 0.841086 0.697542
vt 0.642557 0.656615
vt 0.841086 0.656615
vt 0.841086 0.636599
vt 0.642557 0.636599
vt 0.841086 0.617063
vt 0.642557 0.617063
vt 0.642557 0.579954
vt 0.841086 0.579954
vt 0.642557 0.546292
vt 0.841086 0.546292
vt 0.642557 0.516985
vt 0.841086 0.516985
vt 0.444028 0.516985
vt 0.642557 0.516985
vt 0.642557 0.547979
vt 0.444028 0.547979
vt 0.642557 0.583009
vt 0.444028 0.583009
vt 0.642557 0.621129
vt 0.444028 0.621129
vt 0.642557 0.661308
vt 0.444028 0.661308
vt 0.642557 0.702462
vt 0.444028 0.702462
vt 0.642557 0.743479
vt 0.444028 0.743479
vt 0.642557 0.745322
vt 0.444028 0.745322
vt 0.652935 0.018683
vt 0.735122 0.513603
vt 0.733270 0.513903
vt 0.455512 0.520108
vt 0.662568 0.252346
vt 0.458052 0.540585
vt 0.664418 0.252031
vt 0.462266 0.560784
vt 0.748455 0.252346
vt 0.788362 0.262719
vt 0.948757 0.438199
vt 0.369675 0.271158
vt 0.660769 0.498001
vt 0.660769 0.539234
vt 0.455512 0.478875
vt 0.462266 0.438199
vt 0.475593 0.399179
vt 0.658229 0.477524
vt 0.952972 0.458398
vt 0.666270 0.251731
vt 0.371527 0.270858
vt 0.654014 0.457326
vt 0.707388 0.248650
vt 0.654014 0.579910
vt 0.640687 0.618930
vt 0.935430 0.599803
vt 0.915891 0.636113
vt 0.611178 0.502915
vt 0.573510 0.486144
vt 0.539098 0.463429
vt 0.508872 0.435383
vt 0.520356 0.668731
vt 0.495132 0.636113
vt 0.475593 0.599804
vt 0.622662 0.262719
vt 0.584993 0.279490
vt 0.550581 0.302205
vt 0.493619 0.281846
vt 0.531287 0.298617
vt 0.565699 0.321332
vt 0.640687 0.418306
vt 0.595925 0.349378
vt 0.621148 0.381996
vt 0.692152 0.516985
vt 0.651085 0.513289
vt 0.495132 0.362869
vt 0.520355 0.330251
vt 0.890668 0.668731
vt 0.879184 0.435383
vt 0.848958 0.463429
vt 0.814547 0.486144
vt 0.776878 0.502915
vt 0.736972 0.513289
vt 0.642557 0.747162
vt 0.444028 0.747162
vt 0.642557 0.786765
vt 0.444028 0.786765
vt 0.642557 0.823952
vt 0.444028 0.823952
vt 0.642557 0.857719
vt 0.444028 0.857719
vt 0.642557 0.887154
vt 0.444028 0.887154
vt 0.591759 0.562889
vt 0.790287 0.562889
vt 0.790288 0.594958
vt 0.591759 0.594958
vt 0.790288 0.630840
vt 0.591759 0.630840
vt 0.790288 0.669564
vt 0.591759 0.669564
vt 0.790287 0.710086
vt 0.591759 0.710086
vt 0.790287 0.751309
vt 0.591759 0.751309
vt 0.591759 0.771836
vt 0.790287 0.771836
vt 0.591759 0.792121
vt 0.790287 0.792121
vt 0.790287 0.831418
vt 0.591759 0.831418
vt 0.790288 0.868139
vt 0.591759 0.868139
vt 0.790288 0.901292
vt 0.591759 0.901292
vt 0.744872 0.876846
vt 0.546343 0.876846
vt 0.546343 0.845852
vt 0.829084 0.895973
vt 0.630555 0.864979
vt 0.829084 0.864979
vt 0.744872 0.845852
vt 0.546343 0.810822
vt 0.630555 0.829949
vt 0.829084 0.829949
vt 0.744872 0.810822
vt 0.546343 0.772702
vt 0.630555 0.791829
vt 0.829084 0.791829
vt 0.744872 0.772702
vt 0.546343 0.732523
vt 0.630555 0.751649
vt 0.829084 0.751649
vt 0.744872 0.732523
vt 0.546343 0.691369
vt 0.630555 0.710496
vt 0.829084 0.710496
vt 0.744872 0.691369
vt 0.546343 0.650353
vt 0.630555 0.669479
vt 0.829084 0.669479
vt 0.744872 0.650353
vt 0.630555 0.667636
vt 0.749849 0.425717
vt 0.748821 0.427287
vt 0.677661 0.079744
vt 0.689145 0.313092
vt 0.760305 0.660635
vt 0.671471 0.302442
vt 0.547276 0.408774
vt 0.548304 0.407204
vt 0.967007 0.683587
vt 0.549344 0.405642
vt 0.433739 0.300664
vt 0.471654 0.284459
vt 0.511712 0.274683
vt 0.552829 0.271602
vt 0.722073 0.461086
vt 0.418951 0.509096
vt 0.747782 0.428849
vt 0.954484 0.451801
vt 0.625654 0.532049
vt 0.607980 0.521399
vt 0.401278 0.498447
vt 0.955524 0.450239
vt 0.591242 0.509333
vt 0.561016 0.481288
vt 0.496526 0.536241
vt 0.656683 0.510875
vt 0.537593 0.539937
vt 0.618768 0.527080
vt 0.578711 0.536856
vt 0.496172 0.291431
vt 0.496172 0.332664
vt 0.502927 0.373340
vt 0.575052 0.373405
vt 0.605694 0.345814
vt 0.640442 0.323617
vt 0.593896 0.275298
vt 0.633803 0.285672
vt 0.705883 0.325158
vt 0.761332 0.659065
vt 0.736109 0.353203
vt 0.761332 0.385821
vt 0.780871 0.422131
vt 0.794198 0.461151
vt 0.782715 0.227803
vt 0.789469 0.268479
vt 0.789469 0.309712
vt 0.782715 0.350388
vt 0.769388 0.389408
vt 0.691431 0.488677
vt 0.863386 0.533827
vt 0.663322 0.548820
vt 0.751362 0.506740
vt 0.951426 0.491748
vt 0.791269 0.517114
vt 0.535793 0.448670
vt 0.516254 0.412360
vt 0.502927 0.250755
vt 0.516254 0.211735
vt 0.527737 0.445083
s 0
usemtl Material.032
f 1/1/1 2/2/1 3/3/1
f 1/4/2 3/5/2 4/6/2
f 4/7/3 3/3/3 5/8/3
f 4/6/3 5/9/3 6/10/3
f 6/11/4 5/8/4 7/12/4
f 6/10/4 7/13/4 8/14/4
f 8/15/5 7/12/5 9/16/5
f 8/14/5 9/17/5 10/18/5
f 10/19/6 9/20/6 11/21/6
f 10/19/6 11/21/6 12/22/6
f 12/22/7 11/21/7 13/23/7
f 12/22/7 13/23/7 14/24/7
f 14/24/8 13/23/8 15/25/8
f 14/24/8 15/25/8 16/26/8
f 16/26/9 15/25/9 17/27/9
f 16/26/9 17/27/9 18/28/9
f 18/28/10 17/27/10 19/29/10
f 18/28/10 19/29/10 20/30/10
f 20/30/11 19/29/11 21/31/11
f 20/30/11 21/31/11 22/32/11
f 22/32/12 21/31/12 23/33/12
f 23/33/12 21/31/12 24/34/12
f 23/33/13 24/34/13 25/35/13
f 24/34/13 26/36/13 25/35/13
f 25/35/14 26/36/14 27/37/14
f 25/35/14 27/37/14 28/38/14
f 28/38/15 27/37/15 29/39/15
f 28/38/15 29/39/15 30/40/15
f 30/40/16 29/39/16 31/41/16
f 30/40/16 31/41/16 32/42/16
f 32/43/17 31/44/17 33/45/17
f 32/43/17 33/45/17 34/46/17
f 34/46/18 33/45/18 35/47/18
f 34/46/18 35/47/18 36/48/18
f 36/48/19 35/47/19 37/49/19
f 36/48/19 37/49/19 38/50/19
f 38/50/20 37/49/20 39/51/20
f 38/50/20 39/51/20 40/52/20
f 40/52/21 39/51/21 41/53/21
f 40/52/21 41/53/21 42/54/21
f 42/54/22 41/53/22 43/55/22
f 42/54/22 43/55/22 44/56/22
f 44/56/23 43/55/23 45/57/23
f 44/56/23 45/57/23 46/58/23
f 1/59/24 46/60/24 47/61/24
f 48/62/24 49/63/24 50/64/24
f 50/64/24 49/63/24 1/65/24
f 50/64/24 1/65/24 51/66/24
f 8/67/24 10/68/24 22/69/24
f 1/70/24 25/71/24 28/72/24
f 48/62/24 52/73/24 49/63/24
f 49/63/24 52/73/24 53/74/24
f 49/63/24 53/74/24 54/75/24
f 25/71/24 1/70/24 23/76/24
f 23/77/24 1/65/24 4/78/24
f 23/76/24 4/79/24 22/80/24
f 22/69/24 4/78/24 6/81/24
f 22/69/24 6/81/24 8/67/24
f 28/72/24 30/82/24 1/70/24
f 1/70/24 30/82/24 32/83/24
f 1/65/24 32/84/24 34/85/24
f 55/86/24 56/87/24 1/59/24
f 1/59/24 56/87/24 57/88/24
f 1/59/24 57/88/24 58/89/24
f 58/90/24 59/91/24 1/65/24
f 1/65/24 59/91/24 60/92/24
f 1/65/24 60/92/24 51/66/24
f 61/93/24 49/63/24 62/94/24
f 62/94/24 49/63/24 63/95/24
f 10/96/24 12/97/24 22/80/24
f 22/80/24 12/97/24 14/98/24
f 22/80/24 14/98/24 20/99/24
f 20/99/24 14/98/24 16/100/24
f 20/99/24 16/100/24 18/101/24
f 47/61/24 64/102/24 1/59/24
f 1/59/24 64/102/24 65/103/24
f 1/59/24 65/103/24 55/86/24
f 54/75/24 66/104/24 49/63/24
f 49/63/24 66/104/24 67/105/24
f 49/63/24 67/105/24 63/95/24
f 34/85/24 36/106/24 1/65/24
f 1/59/24 36/107/24 38/108/24
f 1/59/24 38/108/24 40/109/24
f 40/109/24 42/110/24 1/59/24
f 1/59/24 42/110/24 44/111/24
f 1/59/24 44/111/24 46/60/24
f 46/58/25 45/57/25 68/112/25
f 46/58/25 68/112/25 47/113/25
f 47/113/26 68/112/26 69/114/26
f 47/113/26 69/114/26 64/115/26
f 64/115/27 69/114/27 70/116/27
f 64/115/27 70/116/27 65/117/27
f 65/117/28 70/116/28 71/118/28
f 65/117/28 71/118/28 55/119/28
f 55/119/29 71/118/29 72/120/29
f 55/119/29 72/120/29 56/121/29
f 56/122/30 72/123/30 73/124/30
f 56/122/30 73/124/30 57/125/30
f 57/125/31 73/124/31 74/126/31
f 57/125/31 74/126/31 58/127/31
f 58/127/32 74/126/32 75/128/32
f 58/127/32 75/128/32 59/129/32
f 59/129/33 75/128/33 76/130/33
f 59/129/33 76/130/33 60/131/33
f 60/131/34 76/130/34 77/132/34
f 60/131/34 77/132/34 51/133/34
f 51/133/35 77/132/35 50/134/35
f 50/134/35 77/132/35 78/135/35
f 50/134/36 78/135/36 48/136/36
f 78/135/36 79/137/36 48/136/36
f 48/136/37 79/137/37 80/138/37
f 48/136/37 80/138/37 52/139/37
f 52/139/38 80/138/38 81/140/38
f 52/139/38 81/140/38 53/141/38
f 53/141/39 81/140/39 82/142/39
f 53/141/39 82/142/39 54/143/39
f 54/144/40 82/145/40 83/146/40
f 54/147/40 83/148/40 66/149/40
f 66/150/41 83/146/41 84/151/41
f 66/149/41 84/152/41 67/153/41
f 67/154/42 84/151/42 85/155/42
f 67/153/42 85/156/42 63/157/42
f 63/158/43 85/155/43 86/159/43
f 63/157/43 86/160/43 62/161/43
f 62/162/44 86/159/44 87/163/44
f 62/161/44 87/164/44 61/165/44
f 61/166/45 87/163/45 88/167/45
f 61/165/45 88/168/45 49/169/45
f 49/170/46 88/167/46 2/2/46
f 49/169/47 2/171/47 1/4/47
f 3/172/48 2/173/48 24/174/48
f 24/175/48 2/176/48 26/177/48
f 68/178/48 45/179/48 2/180/48
f 2/180/48 45/179/48 43/181/48
f 37/182/48 35/183/48 2/176/48
f 2/176/48 35/183/48 33/184/48
f 2/176/48 33/184/48 31/185/48
f 87/186/48 79/187/48 88/188/48
f 88/189/48 79/190/48 78/191/48
f 88/188/48 78/192/48 2/173/48
f 2/193/48 78/191/48 77/194/48
f 2/193/48 77/194/48 76/195/48
f 81/196/48 85/197/48 82/198/48
f 82/198/48 85/197/48 84/199/48
f 82/198/48 84/199/48 83/200/48
f 71/201/48 2/193/48 72/202/48
f 72/202/48 2/193/48 73/203/48
f 43/181/48 41/204/48 2/180/48
f 2/180/48 41/204/48 39/205/48
f 2/180/48 39/205/48 37/206/48
f 31/185/48 29/207/48 2/176/48
f 2/176/48 29/207/48 27/208/48
f 2/176/48 27/208/48 26/177/48
f 24/175/48 21/209/48 3/210/48
f 3/210/48 21/209/48 19/211/48
f 3/210/48 19/211/48 17/212/48
f 17/212/48 15/213/48 3/210/48
f 3/210/48 15/213/48 13/214/48
f 3/172/48 13/215/48 11/216/48
f 11/216/48 9/217/48 3/172/48
f 3/172/48 9/217/48 7/218/48
f 3/172/48 7/218/48 5/219/48
f 87/186/48 86/220/48 79/187/48
f 79/187/48 86/220/48 85/197/48
f 79/190/48 85/221/48 80/222/48
f 80/223/48 85/224/48 81/225/48
f 76/195/48 75/226/48 2/193/48
f 2/193/48 75/226/48 74/227/48
f 2/193/48 74/227/48 73/203/48
f 71/201/48 70/228/48 2/193/48
f 2/193/48 70/228/48 69/229/48
f 2/180/48 69/230/48 68/178/48
