# Blender 4.4.3
# www.blender.org
mtllib wheel_motor_link3.mtl
o wheel_motor_link3
v 0.070000 0.000000 -0.027700
v 0.070000 -0.000000 0.027700
v 0.069998 -0.000524 0.027700
v 0.069998 -0.000524 -0.027700
v 0.068967 -0.011983 0.027700
v 0.068967 -0.011983 -0.027700
v 0.066072 -0.023120 0.027700
v 0.066072 -0.023119 -0.027700
v 0.061392 -0.033631 0.027700
v 0.061392 -0.033631 -0.027700
v 0.055053 -0.043234 0.027700
v 0.055053 -0.043234 -0.027700
v 0.047227 -0.051668 0.027700
v 0.047227 -0.051668 -0.027700
v 0.038125 -0.058707 0.027700
v 0.038125 -0.058707 -0.027700
v 0.027992 -0.064159 0.027700
v 0.027992 -0.064159 -0.027700
v 0.017104 -0.067878 0.027700
v 0.017104 -0.067878 -0.027700
v 0.005753 -0.069763 0.027700
v 0.005753 -0.069763 -0.027700
v -0.000000 -0.070000 -0.027700
v -0.000000 -0.070000 0.027700
v -0.005753 -0.069763 -0.027700
v -0.005753 -0.069763 0.027700
v -0.017104 -0.067878 0.027700
v -0.017104 -0.067878 -0.027700
v -0.027992 -0.064159 0.027700
v -0.027992 -0.064159 -0.027700
v -0.038125 -0.058707 0.027700
v -0.038125 -0.058707 -0.027700
v -0.047227 -0.051668 0.027700
v -0.047227 -0.051668 -0.027700
v -0.055053 -0.043234 0.027700
v -0.055053 -0.043234 -0.027700
v -0.061392 -0.033631 0.027700
v -0.061392 -0.033631 -0.027700
v -0.066072 -0.023120 0.027700
v -0.066072 -0.023119 -0.027700
v -0.068967 -0.011983 0.027700
v -0.068967 -0.011983 -0.027700
v -0.069998 -0.000524 0.027700
v -0.069998 -0.000524 -0.027700
v -0.070000 -0.000000 0.027700
v -0.070000 0.000000 -0.027700
v -0.068967 0.011983 -0.027700
v -0.005753 0.069763 -0.027700
v -0.069998 0.000524 -0.027700
v -0.000000 0.070000 -0.027700
v 0.005753 0.069763 -0.027700
v 0.017104 0.067878 -0.027700
v 0.027992 0.064159 -0.027700
v 0.038125 0.058707 -0.027700
v 0.047227 0.051668 -0.027700
v -0.055053 0.043234 -0.027700
v -0.047227 0.051668 -0.027700
v -0.061392 0.033631 -0.027700
v -0.038125 0.058707 -0.027700
v -0.027992 0.064159 -0.027700
v -0.066072 0.023120 -0.027700
v -0.017104 0.067878 -0.027700
v 0.055053 0.043234 -0.027700
v 0.061392 0.033631 -0.027700
v 0.066072 0.023120 -0.027700
v 0.068967 0.011983 -0.027700
v 0.069998 0.000524 -0.027700
v -0.069998 0.000524 0.027700
v -0.068967 0.011983 0.027700
v -0.066072 0.023119 0.027700
v -0.061392 0.033631 0.027700
v -0.055053 0.043234 0.027700
v -0.047227 0.051668 0.027700
v -0.038125 0.058707 0.027700
v -0.027992 0.064159 0.027700
v -0.017104 0.067878 0.027700
v -0.005753 0.069763 0.027700
v -0.000000 0.070000 0.027700
v 0.005753 0.069763 0.027700
v 0.017104 0.067878 0.027700
v 0.027992 0.064159 0.027700
v 0.038125 0.058707 0.027700
v 0.047227 0.051668 0.027700
v 0.055053 0.043234 0.027700
v 0.061392 0.033631 0.027700
v 0.066072 0.023119 0.027700
v 0.068967 0.011983 0.027700
v 0.069998 0.000524 0.027700
vn 1.0000 -0.0037 -0.0000
vn 1.0000 -0.0038 -0.0000
vn 0.9960 -0.0896 -0.0000
vn 0.9678 -0.2516 -0.0000
vn 0.9135 -0.4067 -0.0000
vn 0.8346 -0.5509 -0.0000
vn 0.7331 -0.6802 -0.0000
vn 0.6117 -0.7911 -0.0000
vn 0.4739 -0.8806 -0.0000
vn 0.3232 -0.9463 -0.0000
vn 0.1638 -0.9865 -0.0000
vn 0.0411 -0.9992 -0.0000
vn -0.0411 -0.9992 -0.0000
vn -0.1638 -0.9865 -0.0000
vn -0.3232 -0.9463 -0.0000
vn -0.4739 -0.8806 -0.0000
vn -0.6117 -0.7911 -0.0000
vn -0.7331 -0.6802 -0.0000
vn -0.8346 -0.5509 -0.0000
vn -0.9135 -0.4067 -0.0000
vn -0.9678 -0.2516 -0.0000
vn -0.9960 -0.0896 -0.0000
vn -1.0000 -0.0038 -0.0000
vn -0.0000 -0.0000 -1.0000
vn -1.0000 0.0038 -0.0000
vn -0.9960 0.0896 -0.0000
vn -0.9678 0.2516 -0.0000
vn -0.9135 0.4067 -0.0000
vn -0.8346 0.5509 -0.0000
vn -0.7331 0.6802 -0.0000
vn -0.6117 0.7911 -0.0000
vn -0.4739 0.8806 -0.0000
vn -0.3232 0.9463 -0.0000
vn -0.1638 0.9865 -0.0000
vn -0.0411 0.9992 -0.0000
vn 0.0411 0.9992 -0.0000
vn 0.1638 0.9865 -0.0000
vn 0.3232 0.9463 -0.0000
vn 0.4739 0.8806 -0.0000
vn 0.6117 0.7911 -0.0000
vn 0.7331 0.6802 -0.0000
vn 0.8346 0.5509 -0.0000
vn 0.9135 0.4067 -0.0000
vn 0.9678 0.2516 -0.0000
vn 0.9960 0.0896 -0.0000
vn 1.0000 0.0037 -0.0000
vn 1.0000 0.0038 -0.0000
vn -0.0000 -0.0000 1.0000
vt 0.508065 0.775841
vt 0.706594 0.775841
vt 0.706594 0.777713
vt 0.508065 0.777714
vt 0.706594 0.818460
vt 0.508065 0.818460
vt 0.706594 0.857621
vt 0.508065 0.857621
vt 0.706594 0.894138
vt 0.508065 0.894138
vt 0.706594 0.927026
vt 0.508065 0.927026
vt 0.551207 0.501683
vt 0.749736 0.501683
vt 0.749736 0.533752
vt 0.551207 0.533752
vt 0.749736 0.569634
vt 0.551207 0.569634
vt 0.749736 0.608358
vt 0.551207 0.608358
vt 0.749736 0.648880
vt 0.551207 0.648880
vt 0.749736 0.690103
vt 0.551207 0.690103
vt 0.551207 0.710630
vt 0.749736 0.710630
vt 0.551207 0.730915
vt 0.749736 0.730915
vt 0.749736 0.770212
vt 0.551207 0.770212
vt 0.749736 0.806933
vt 0.551207 0.806933
vt 0.749736 0.840086
vt 0.551207 0.840086
vt 0.749736 0.868774
vt 0.551207 0.868774
vt 0.905122 0.927026
vt 0.706594 0.927026
vt 0.706594 0.895067
vt 0.905122 0.895067
vt 0.778804 0.906543
vt 0.580275 0.906543
vt 0.580275 0.870748
vt 0.778804 0.870748
vt 0.580275 0.832083
vt 0.778804 0.832083
vt 0.580275 0.791594
vt 0.778804 0.791594
vt 0.580275 0.750375
vt 0.778804 0.750375
vt 0.580275 0.748502
vt 0.778804 0.748502
vt 0.631089 0.435312
vt 0.623622 0.416077
vt 0.779930 0.097615
vt 0.653612 0.109091
vt 0.815766 0.583861
vt 0.813988 0.584461
vt 0.497304 0.427553
vt 0.651839 0.109704
vt 0.778157 0.098228
vt 0.617762 0.396292
vt 0.611007 0.355616
vt 0.680136 0.397095
vt 0.949296 0.544543
vt 0.640079 0.406871
vt 0.655390 0.108491
vt 0.964607 0.246164
vt 0.972074 0.265399
vt 0.956762 0.563779
vt 0.638301 0.407470
vt 0.977934 0.285184
vt 0.984689 0.325860
vt 0.691745 0.593622
vt 0.651839 0.583248
vt 0.614170 0.566477
vt 0.579759 0.543762
vt 0.549533 0.515716
vt 0.675851 0.504240
vt 0.650628 0.471622
vt 0.984689 0.367093
vt 0.977934 0.407768
vt 0.964607 0.446788
vt 0.611007 0.314383
vt 0.617762 0.273707
vt 0.631089 0.234687
vt 0.650628 0.198378
vt 0.762846 0.396607
vt 0.635316 0.496757
vt 0.660540 0.464139
vt 0.636527 0.408084
vt 0.534221 0.475615
vt 0.598859 0.424855
vt 0.725177 0.413378
vt 0.690766 0.436094
vt 0.802228 0.408084
vt 0.839896 0.424854
vt 0.762321 0.397710
vt 0.874308 0.447570
vt 0.904534 0.475615
vt 0.773930 0.594236
vt 0.732812 0.597318
vt 0.721254 0.394014
vt 0.777632 0.099330
vt 0.945068 0.209854
vt 0.929757 0.508233
vt 0.945068 0.483098
vt 0.919845 0.515716
vt 0.889619 0.543762
vt 0.855207 0.566477
vt 0.817539 0.583248
vt 0.580275 0.746630
vt 0.778804 0.746630
vt 0.580275 0.705884
vt 0.778804 0.705884
vt 0.580275 0.666723
vt 0.778804 0.666723
vt 0.580275 0.630205
vt 0.778804 0.630205
vt 0.580275 0.597318
vt 0.778804 0.597318
vt 0.821947 0.880250
vt 0.623418 0.880250
vt 0.623418 0.848181
vt 0.802807 0.937631
vt 0.604279 0.905562
vt 0.802807 0.905562
vt 0.821947 0.848181
vt 0.623418 0.812300
vt 0.676489 0.917038
vt 0.477960 0.881157
vt 0.676489 0.881157
vt 0.821947 0.812300
vt 0.623418 0.773575
vt 0.477960 0.842432
vt 0.676489 0.842432
vt 0.821947 0.773575
vt 0.623418 0.733054
vt 0.477960 0.801910
vt 0.676489 0.801910
vt 0.821947 0.733054
vt 0.623418 0.691830
vt 0.477960 0.760687
vt 0.676489 0.760687
vt 0.676489 0.740160
vt 0.821947 0.671303
vt 0.623418 0.671303
vt 0.477960 0.740160
vt 0.676489 0.719875
vt 0.623418 0.651018
vt 0.821947 0.651018
vt 0.623418 0.611721
vt 0.477960 0.680578
vt 0.676489 0.680578
vt 0.821947 0.611721
vt 0.623418 0.575000
vt 0.477960 0.643857
vt 0.676489 0.643857
vt 0.821947 0.575000
vt 0.623418 0.541848
vt 0.477960 0.610705
vt 0.676489 0.610705
vt 0.821947 0.541848
vt 0.623418 0.513159
vt 0.477960 0.582016
vt 0.676489 0.582016
vt 0.508065 0.585842
vt 0.706594 0.585842
vt 0.706594 0.617801
vt 0.508065 0.617801
vt 0.706594 0.653596
vt 0.508065 0.653596
vt 0.706594 0.692260
vt 0.508065 0.692260
vt 0.706594 0.732749
vt 0.508065 0.732749
vt 0.706594 0.773969
vt 0.508065 0.773969
vt 0.714588 0.500415
vt 0.684362 0.528460
vt 0.375981 0.132736
vt 0.646277 0.448128
vt 0.616051 0.420082
vt 0.647757 0.052403
vt 0.602768 0.404292
vt 0.646277 0.053556
vt 0.673013 0.513159
vt 0.631946 0.509463
vt 0.521439 0.063879
vt 0.739811 0.467797
vt 0.590828 0.387464
vt 0.571289 0.351154
vt 0.557962 0.312134
vt 0.551207 0.271458
vt 0.551207 0.230225
vt 0.630966 0.351935
vt 0.535896 0.528605
vt 0.542651 0.487929
vt 0.706597 0.311236
vt 0.746655 0.301461
vt 0.787772 0.298379
vt 0.828839 0.302076
vt 0.868746 0.312449
vt 0.633934 0.349640
vt 0.906414 0.329220
vt 0.488477 0.418497
vt 0.760957 0.398077
vt 0.795369 0.420792
vt 0.810680 0.516984
vt 0.809200 0.518138
vt 0.502300 0.121259
vt 0.807712 0.519280
vt 0.772964 0.541478
vt 0.758264 0.497987
vt 0.718358 0.487614
vt 0.680689 0.470843
vt 0.555978 0.448909
vt 0.575517 0.412599
vt 0.600740 0.379981
vt 0.759350 0.230862
vt 0.772677 0.269882
vt 0.779432 0.310558
vt 0.779432 0.351791
vt 0.792103 0.484097
vt 0.754188 0.500303
vt 0.714131 0.510078
vt 0.668682 0.327442
vt 0.669051 0.432268
vt 0.699276 0.460314
vt 0.362159 0.429973
vt 0.712559 0.476104
vt 0.507616 0.361116
vt 0.858017 0.407247
vt 0.506128 0.362258
vt 0.727871 0.177724
vt 0.739811 0.194552
vt 0.772677 0.392467
vt 0.759350 0.431487
s 0
usemtl Material.030
f 1/1/1 2/2/1 3/3/1
f 1/1/2 3/3/2 4/4/2
f 4/4/3 3/3/3 5/5/3
f 4/4/3 5/5/3 6/6/3
f 6/6/4 5/5/4 7/7/4
f 6/6/4 7/7/4 8/8/4
f 8/8/5 7/7/5 9/9/5
f 8/8/5 9/9/5 10/10/5
f 10/10/6 9/9/6 11/11/6
f 10/10/6 11/11/6 12/12/6
f 12/13/7 11/14/7 13/15/7
f 12/13/7 13/15/7 14/16/7
f 14/16/8 13/15/8 15/17/8
f 14/16/8 15/17/8 16/18/8
f 16/18/9 15/17/9 17/19/9
f 16/18/9 17/19/9 18/20/9
f 18/20/10 17/19/10 19/21/10
f 18/20/10 19/21/10 20/22/10
f 20/22/11 19/21/11 21/23/11
f 20/22/11 21/23/11 22/24/11
f 22/24/12 21/23/12 23/25/12
f 23/25/12 21/23/12 24/26/12
f 23/25/13 24/26/13 25/27/13
f 24/26/13 26/28/13 25/27/13
f 25/27/14 26/28/14 27/29/14
f 25/27/14 27/29/14 28/30/14
f 28/30/15 27/29/15 29/31/15
f 28/30/15 29/31/15 30/32/15
f 30/32/16 29/31/16 31/33/16
f 30/32/16 31/33/16 32/34/16
f 32/34/17 31/33/17 33/35/17
f 32/34/17 33/35/17 34/36/17
f 34/37/18 33/38/18 35/39/18
f 34/37/18 35/39/18 36/40/18
f 36/41/19 35/42/19 37/43/19
f 36/41/19 37/43/19 38/44/19
f 38/44/20 37/43/20 39/45/20
f 38/44/20 39/45/20 40/46/20
f 40/46/21 39/45/21 41/47/21
f 40/46/21 41/47/21 42/48/21
f 42/48/22 41/47/22 43/49/22
f 42/48/22 43/49/22 44/50/22
f 44/50/23 43/49/23 45/51/23
f 44/50/23 45/51/23 46/52/23
f 22/53/24 23/54/24 46/55/24
f 46/56/24 1/57/24 4/58/24
f 46/56/24 23/59/24 44/60/24
f 44/61/24 23/54/24 25/62/24
f 44/61/24 25/62/24 28/63/24
f 47/64/24 48/65/24 49/66/24
f 49/67/24 48/68/24 50/69/24
f 49/66/24 50/70/24 46/71/24
f 46/56/24 50/69/24 51/72/24
f 46/56/24 51/72/24 52/73/24
f 10/74/24 12/75/24 46/56/24
f 46/56/24 12/75/24 14/76/24
f 46/56/24 14/76/24 16/77/24
f 16/77/24 18/78/24 46/56/24
f 46/55/24 18/79/24 20/80/24
f 46/55/24 20/80/24 22/53/24
f 52/73/24 53/81/24 46/56/24
f 46/56/24 53/81/24 54/82/24
f 46/56/24 54/82/24 55/83/24
f 28/63/24 30/84/24 44/61/24
f 44/61/24 30/84/24 32/85/24
f 44/61/24 32/85/24 34/86/24
f 34/86/24 36/87/24 44/61/24
f 44/88/24 36/89/24 38/90/24
f 44/91/24 38/92/24 42/93/24
f 42/94/24 38/90/24 40/95/24
f 56/96/24 57/97/24 58/98/24
f 58/98/24 57/97/24 59/99/24
f 58/98/24 59/99/24 60/100/24
f 4/58/24 6/101/24 46/56/24
f 46/56/24 6/101/24 8/102/24
f 46/56/24 8/102/24 10/74/24
f 47/64/24 61/103/24 48/65/24
f 48/65/24 61/103/24 58/98/24
f 48/68/24 58/104/24 62/105/24
f 62/106/24 58/98/24 60/100/24
f 55/83/24 63/107/24 46/56/24
f 46/56/24 63/107/24 64/108/24
f 46/56/24 64/108/24 65/109/24
f 65/109/24 66/110/24 46/56/24
f 46/56/24 66/110/24 67/111/24
f 46/56/24 67/111/24 1/57/24
f 46/52/25 45/51/25 68/112/25
f 46/52/25 68/112/25 49/113/25
f 49/113/26 68/112/26 69/114/26
f 49/113/26 69/114/26 47/115/26
f 47/115/27 69/114/27 70/116/27
f 47/115/27 70/116/27 61/117/27
f 61/117/28 70/116/28 71/118/28
f 61/117/28 71/118/28 58/119/28
f 58/119/29 71/118/29 72/120/29
f 58/119/29 72/120/29 56/121/29
f 56/122/30 72/123/30 73/124/30
f 56/125/30 73/126/30 57/127/30
f 57/128/31 73/124/31 74/129/31
f 57/130/31 74/131/31 59/132/31
f 59/133/32 74/129/32 75/134/32
f 59/132/32 75/135/32 60/136/32
f 60/137/33 75/134/33 76/138/33
f 60/136/33 76/139/33 62/140/33
f 62/141/34 76/138/34 77/142/34
f 62/140/34 77/143/34 48/144/34
f 48/144/35 77/143/35 50/145/35
f 50/146/35 77/142/35 78/147/35
f 50/145/36 78/148/36 51/149/36
f 78/147/36 79/150/36 51/151/36
f 51/151/37 79/150/37 80/152/37
f 51/149/37 80/153/37 52/154/37
f 52/155/38 80/152/38 81/156/38
f 52/154/38 81/157/38 53/158/38
f 53/159/39 81/156/39 82/160/39
f 53/158/39 82/161/39 54/162/39
f 54/163/40 82/160/40 83/164/40
f 54/162/40 83/165/40 55/166/40
f 55/167/41 83/168/41 84/169/41
f 55/167/41 84/169/41 63/170/41
f 63/170/42 84/169/42 85/171/42
f 63/170/42 85/171/42 64/172/42
f 64/172/43 85/171/43 86/173/43
f 64/172/43 86/173/43 65/174/43
f 65/174/44 86/173/44 87/175/44
f 65/174/44 87/175/44 66/176/44
f 66/176/45 87/175/45 88/177/45
f 66/176/45 88/177/45 67/178/45
f 67/178/46 88/177/46 2/2/46
f 67/178/47 2/2/47 1/1/47
f 69/179/48 68/180/48 2/181/48
f 27/182/48 26/183/48 2/184/48
f 2/184/48 26/183/48 24/185/48
f 2/184/48 24/185/48 3/186/48
f 35/187/48 33/188/48 2/189/48
f 69/179/48 2/181/48 70/190/48
f 24/185/48 21/191/48 3/186/48
f 3/186/48 21/191/48 19/192/48
f 3/186/48 19/192/48 17/193/48
f 17/193/48 15/194/48 3/186/48
f 3/186/48 15/194/48 13/195/48
f 3/196/48 13/197/48 11/198/48
f 86/199/48 85/200/48 84/201/48
f 83/202/48 82/203/48 88/204/48
f 88/204/48 82/203/48 81/205/48
f 88/206/48 81/207/48 80/208/48
f 68/209/48 45/210/48 2/211/48
f 2/211/48 45/210/48 43/212/48
f 2/211/48 43/212/48 41/213/48
f 33/214/48 31/215/48 2/184/48
f 2/184/48 31/215/48 29/216/48
f 2/184/48 29/216/48 27/182/48
f 11/198/48 9/217/48 3/196/48
f 3/196/48 9/217/48 7/218/48
f 3/196/48 7/218/48 5/219/48
f 76/220/48 75/221/48 2/181/48
f 2/181/48 75/221/48 74/222/48
f 2/181/48 74/222/48 73/223/48
f 41/224/48 39/225/48 2/189/48
f 2/189/48 39/225/48 37/226/48
f 2/189/48 37/226/48 35/187/48
f 83/202/48 88/204/48 84/201/48
f 84/201/48 88/204/48 87/227/48
f 84/201/48 87/227/48 86/199/48
f 80/228/48 79/229/48 88/230/48
f 88/230/48 79/229/48 78/231/48
f 88/232/48 78/233/48 2/234/48
f 2/181/48 78/235/48 77/236/48
f 2/181/48 77/236/48 76/220/48
f 73/223/48 72/237/48 2/181/48
f 2/181/48 72/237/48 71/238/48
f 2/181/48 71/238/48 70/190/48
